<?xml version="1.0" encoding="utf-8"?>
<!-- Generator: Adobe Illustrator 16.0.0, SVG Export Plug-In . SVG Version: 6.00 Build 0)  -->
<!DOCTYPE svg PUBLIC "-//W3C//DTD SVG 1.1//EN" "http://www.w3.org/Graphics/SVG/1.1/DTD/svg11.dtd">
<svg version="1.1" id="Layer_1" xmlns="http://www.w3.org/2000/svg" xmlns:xlink="http://www.w3.org/1999/xlink" x="0px" y="0px"
	 width="430.5px" height="116.5px" viewBox="0 0 430.5 116.5" enable-background="new 0 0 430.5 116.5" xml:space="preserve">
<g>
	<path fill="#00549C" d="M7.526,5.325c-5.41,12.097-8.398,26.062-7.301,41.196c2.932,40.357,31.541,71.839,63.09,69.572
		c17.821-1.317,33.031-13.005,42.355-30.218c2.117-3.956,1.246-6.191-2.073-2.711c-41.388,43.77-93.108-2.032-94.979-53.75
		c-0.623-8.32-0.207-16.399,0.967-24.091C10.14,1.902,8.618,2.865,7.526,5.325"/>
	<path fill="#FFC341" d="M73.694,29.331c2.184,1.494,4.316,2.772,6.902,2.636c0.293-0.025,0.818,0.042,1.066,0.46
		c0.11,0.246,0.359,0.709-0.168,1.318c-2.103,2.161-5.422,3.769-8.974,4.425c1.106,2.378,2.358,4.539,4.66,5.712
		c0.274,0.147,0.715,0.463,0.682,0.937c0,0.275-0.03,0.798-0.796,1.065c-2.904,0.843-6.57,0.563-9.986-0.679
		c-0.205,2.625-0.25,5.121,1.178,7.246c0.179,0.262,0.388,0.762,0.14,1.188c-0.14,0.217-0.46,0.666-1.233,0.529
		c-2.959-0.743-5.951-2.768-8.301-5.559c-1.521,2.146-2.767,4.289-2.627,6.877c0.025,0.287-0.039,0.814-0.455,1.082
		c-0.266,0.09-0.748,0.35-1.357-0.188c-2.174-2.101-3.734-5.372-4.389-8.944c-2.361,1.118-4.537,2.354-5.711,4.637
		c-0.154,0.271-0.47,0.689-0.964,0.689c-0.239,0-0.776-0.093-1.071-0.765c-0.813-2.946-0.525-6.584,0.709-10.001
		c-2.631-0.207-5.106-0.237-7.293,1.181c-0.279,0.177-0.73,0.386-1.162,0.138c-0.203-0.138-0.676-0.459-0.535-1.234
		c0.746-2.967,2.806-5.949,5.586-8.301c-2.176-1.531-4.305-2.777-6.904-2.629c-0.314,0.027-0.814-0.039-1.063-0.461
		c-0.141-0.258-0.35-0.756,0.179-1.357c2.104-2.175,5.366-3.741,8.962-4.377c-1.105-2.378-2.352-4.551-4.657-5.729
		c-0.278-0.148-0.709-0.473-0.685-0.97c0-0.251,0.051-0.776,0.779-1.062c2.92-0.831,6.584-0.538,10.002,0.674
		c0.223-2.6,0.25-5.12-1.179-7.284c-0.178-0.253-0.388-0.713-0.139-1.138c0.137-0.246,0.472-0.684,1.243-0.543
		c2.923,0.746,5.941,2.814,8.291,5.59c1.521-2.172,2.768-4.299,2.639-6.913c-0.053-0.313,0.031-0.821,0.461-1.063
		c0.232-0.14,0.729-0.352,1.34,0.188c2.186,2.088,3.732,5.372,4.372,8.957c2.396-1.098,4.563-2.342,5.726-4.654
		c0.156-0.288,0.488-0.723,0.967-0.676c0.251,0,0.775,0.027,1.068,0.775c0.832,2.927,0.537,6.557-0.717,9.971
		c2.641,0.251,5.129,0.279,7.305-1.176c0.248-0.153,0.748-0.356,1.162-0.105c0.223,0.141,0.674,0.469,0.535,1.24
		C78.536,23.951,76.478,26.989,73.694,29.331"/>
	<path fill="#00549C" d="M49,87.276c-4.563-2.176-5.229-5.229,1.688-5.159c39.736,0.272,56.799-44.696,56.146-79.174
		c-0.067-2.957,1.205-4,2.406-0.183c2.01,6.204,3.303,12.886,3.836,19.87c2.598,35.913-17.144,66.845-43.951,68.806
		C62.116,91.952,55.368,90.31,49,87.276"/>
	<polygon fill="#005A9C" points="349.73,49.412 344.584,49.412 339.809,36.266 330.17,49.412 324.551,49.412 338.174,32.096 
		332.508,17.212 337.656,17.212 341.479,28.213 349.357,17.212 354.883,17.212 343.088,32.563 	"/>
	<polygon fill="#005A9C" points="373.881,49.412 368.734,49.412 363.959,36.266 354.316,49.412 348.699,49.412 362.318,32.096 
		356.66,17.212 361.805,17.212 365.627,28.213 373.51,17.212 379.027,17.212 367.234,32.563 	"/>
	<polygon fill="#005A9C" points="377.578,49.412 384.41,17.212 388.951,17.212 382.023,49.412 	"/>
	<path fill="#005A9C" d="M172.614,42.422c-0.033,0.36-0.089,0.695-0.173,1.005c-0.081,0.31-0.187,0.646-0.317,1.005
		c-0.229,0.688-0.615,1.408-1.15,2.158c-0.542,0.751-1.276,1.446-2.206,2.083c-0.933,0.636-2.08,1.159-3.435,1.569
		c-1.356,0.408-2.951,0.613-4.779,0.613c-2.65,0-4.895-0.385-6.742-1.152c-1.846-0.768-3.245-1.904-4.191-3.409
		c-0.295-0.424-0.541-0.849-0.736-1.272c-0.196-0.424-0.344-0.883-0.441-1.375c-0.098-0.49-0.17-1.045-0.218-1.666
		c-0.05-0.619-0.075-1.322-0.075-2.11V16.143h7.111v22.408c0,1.047,0.044,1.896,0.142,2.549c0.099,0.653,0.243,1.159,0.438,1.52
		c0.81,1.568,2.348,2.354,4.615,2.354c1.487,0,2.678-0.352,3.57-1.053c0.889-0.703,1.416-1.675,1.577-2.917
		c0.03-0.162,0.06-0.343,0.073-0.541c0.017-0.192,0.025-0.375,0.025-0.54V16.143h6.963V41.1
		C172.665,41.622,172.648,42.064,172.614,42.422"/>
	<path fill="#005A9C" d="M189.577,30.361c-1.471,0-2.812,0.701-4.018,2.108v17.749h-6.622V33.45c0-1.697-0.09-3.169-0.271-4.415
		c-0.18-1.239-0.396-2.223-0.662-2.939l5.92-1.566c0.593,1.008,0.938,2.203,1.039,3.576c0.721-0.948,1.572-1.778,2.552-2.5
		c0.983-0.719,2.091-1.076,3.337-1.076c0.488,0,0.889,0.031,1.197,0.096c0.313,0.066,0.729,0.212,1.254,0.443l-1.814,5.783
		C190.868,30.523,190.23,30.361,189.577,30.361"/>
	<path fill="#005A9C" d="M209.852,48.453c-1.68,1.604-3.896,2.4-6.652,2.4c-1.775,0-3.35-0.373-4.729-1.125
		c-1.382-0.754-2.285-1.733-2.712-2.942c-0.197-0.556-0.334-1.209-0.418-1.963c-0.084-0.75-0.123-1.765-0.123-3.037V25.705
		l6.373-1.229v16.131c0,1.145,0.049,2.029,0.148,2.649c0.102,0.62,0.23,1.111,0.398,1.472c0.164,0.357,0.473,0.642,0.92,0.856
		c0.449,0.212,0.922,0.317,1.418,0.317c0.395,0,0.811-0.066,1.242-0.197c0.43-0.129,0.838-0.309,1.217-0.539
		c0.383-0.229,0.725-0.489,1.021-0.785c0.295-0.293,0.514-0.586,0.648-0.882V25.85l6.371-1.322v19.168
		c0,0.851,0.127,1.675,0.391,2.479c0.264,0.799,0.641,1.494,1.129,2.083l-4.672,2.646C210.936,50.285,210.275,49.467,209.852,48.453
		"/>
	<path fill="#005A9C" d="M233.436,30.544c-0.703-0.646-1.678-0.968-2.92-0.968c-1.244,0-2.203,0.324-2.891,0.968
		c-0.688,0.646-1.029,1.55-1.029,2.708c0,1.26,0.357,2.161,1.078,2.711c0.717,0.545,1.652,0.821,2.793,0.821
		c2.682,0,4.021-1.175,4.021-3.532C234.486,32.094,234.137,31.189,233.436,30.544 M244.051,29.282
		c-0.721,0.293-1.539,0.44-2.451,0.44c-0.33,0-0.648-0.017-0.961-0.047c-0.313-0.033-0.566-0.064-0.766-0.1
		c0.494,0.586,0.861,1.211,1.107,1.861c0.248,0.656,0.371,1.407,0.371,2.26c0,1.078-0.23,2.076-0.691,2.99
		c-0.459,0.912-1.111,1.701-1.953,2.354c-0.838,0.652-1.826,1.167-2.963,1.543c-1.137,0.377-2.379,0.564-3.73,0.564h-0.688
		c-0.068,0-0.168-0.018-0.301-0.051c-0.854,0.394-1.508,0.745-1.949,1.055c-0.445,0.311-0.668,0.646-0.668,1.006
		c0,0.391,0.355,0.586,1.074,0.586L233,43.797c1.891,0.031,3.406,0.21,4.545,0.539c1.141,0.327,2.15,0.896,3.031,1.714
		c1.434,1.341,2.148,3.122,2.148,5.345c0,2.026-0.668,3.76-2.006,5.194c-1.107,1.181-2.543,2.011-4.305,2.501
		c-1.762,0.492-3.621,0.734-5.578,0.734c-1.795,0-3.537-0.184-5.234-0.561c-1.697-0.378-3.119-1.087-4.258-2.134
		c-1.371-1.276-2.055-2.764-2.055-4.461c0-0.687,0.063-1.22,0.193-1.594c0.133-0.377,0.264-0.695,0.395-0.958h6.082
		c-0.133,0.302-0.215,0.561-0.246,0.779c-0.037,0.215-0.051,0.508-0.051,0.875c0,2.102,1.568,3.154,4.707,3.154
		c0.85,0,1.617-0.059,2.305-0.173c0.686-0.12,1.289-0.343,1.813-0.673c0.492-0.301,0.883-0.672,1.178-1.12
		c0.295-0.452,0.439-0.938,0.439-1.468c0-1.164-0.439-1.952-1.32-2.368c-0.885-0.414-1.979-0.64-3.285-0.67l-2.795-0.05
		c-2.939-0.064-4.953-0.327-6.031-0.785c-0.588-0.229-1.055-0.62-1.396-1.176c-0.344-0.559-0.516-1.258-0.516-2.107
		c0-0.396,0.049-0.787,0.146-1.178s0.303-0.768,0.611-1.128c0.313-0.36,0.768-0.703,1.371-1.03c0.605-0.324,1.432-0.62,2.479-0.882
		c-3.596-0.946-5.395-3.271-5.395-6.96c0-1.276,0.254-2.438,0.762-3.481c0.51-1.047,1.225-1.938,2.146-2.672
		c0.918-0.737,2.033-1.31,3.346-1.72c1.316-0.408,2.775-0.611,4.389-0.611c0.719,0,1.426,0.051,2.117,0.148
		c0.688,0.1,1.49,0.262,2.412,0.49c0.689,0.166,1.273,0.293,1.748,0.392c0.477,0.098,0.93,0.147,1.354,0.147
		c0.92,0,1.83-0.188,2.73-0.566c0.902-0.372,1.73-0.905,2.48-1.592l2.746,4.168C245.486,28.516,244.768,28.989,244.051,29.282"/>
	<path fill="#005A9C" d="M262.264,48.453c-1.676,1.604-3.893,2.4-6.65,2.4c-1.775,0-3.354-0.373-4.732-1.125
		c-1.379-0.754-2.281-1.733-2.709-2.942c-0.199-0.556-0.336-1.209-0.42-1.963c-0.082-0.75-0.123-1.765-0.123-3.037V25.705
		l6.375-1.229v16.131c0,1.145,0.049,2.029,0.148,2.649s0.232,1.111,0.396,1.472c0.166,0.357,0.475,0.642,0.918,0.856
		c0.451,0.212,0.922,0.317,1.42,0.317c0.398,0,0.813-0.066,1.244-0.197c0.43-0.129,0.836-0.309,1.217-0.539
		c0.381-0.229,0.721-0.489,1.021-0.785c0.295-0.293,0.51-0.586,0.645-0.882V25.85l6.373-1.322v19.168
		c0,0.851,0.133,1.675,0.395,2.479c0.26,0.799,0.641,1.494,1.129,2.083l-4.674,2.646C263.35,50.285,262.688,49.467,262.264,48.453"
		/>
	<path fill="#005A9C" d="M280.383,40.009c-0.885,0.517-1.326,1.517-1.326,2.999c0,0.969,0.262,1.748,0.795,2.346
		c0.531,0.595,1.215,0.896,2.053,0.896c1.287,0,2.412-0.567,3.379-1.694l0.098-5.318h-0.291
		C282.836,39.236,281.27,39.496,280.383,40.009 M288.51,50.219c-0.633-0.521-1.113-1.111-1.441-1.765
		c-0.26,0.26-0.51,0.505-0.754,0.733c-0.244,0.227-0.496,0.424-0.756,0.59c-1.236,0.914-2.912,1.371-5.025,1.371
		c-2.83,0-4.969-0.674-6.414-2.019c-1.447-1.353-2.174-3.31-2.174-5.872c0-2.992,0.996-5.188,2.99-6.583
		c1.996-1.399,5.021-2.1,9.07-2.1h0.738c0.324,0,0.57,0.017,0.736,0.053v-1.011c0-1.376-0.189-2.328-0.566-2.856
		c-0.375-0.526-1.17-0.796-2.377-0.796c-1.047,0-2.176,0.249-3.387,0.74c-1.207,0.488-2.498,1.193-3.869,2.107l-2.799-4.707
		c0.656-0.428,1.277-0.787,1.865-1.08c0.586-0.293,1.324-0.621,2.209-0.98c1.24-0.521,2.41-0.898,3.504-1.128
		s2.215-0.343,3.355-0.343c2.146,0,3.896,0.377,5.248,1.128c1.352,0.753,2.271,1.831,2.754,3.239
		c0.158,0.356,0.273,0.742,0.338,1.148c0.063,0.411,0.096,0.956,0.096,1.643v1.717l-0.146,8.432c0,0.689,0.014,1.284,0.049,1.789
		c0.029,0.508,0.127,0.975,0.295,1.398c0.162,0.425,0.396,0.826,0.709,1.201c0.311,0.377,0.742,0.775,1.301,1.203l-3.479,4.018
		C289.836,51.166,289.143,50.741,288.51,50.219"/>
	<path fill="#005A9C" d="M307.736,56.115c-0.717,1.24-1.533,2.169-2.449,2.789c-0.854,0.617-1.789,1.115-2.82,1.491
		c-1.027,0.375-2.115,0.642-3.262,0.804l-2.252-4.313c0.717-0.192,1.451-0.433,2.205-0.712c0.752-0.275,1.371-0.595,1.865-0.955
		c0.719-0.521,1.336-1.209,1.859-2.058c0.164-0.263,0.295-0.491,0.393-0.687c0.102-0.199,0.199-0.402,0.293-0.615
		c0.1-0.211,0.207-0.449,0.322-0.709c0.113-0.265,0.25-0.571,0.416-0.932h-1.668l-2.354-7.061l-5.934-17.651l6.719-0.784
		l4.363,14.758c0.098,0.392,0.227,0.883,0.391,1.472c0.164,0.586,0.311,1.162,0.443,1.714c0.129,0.559,0.246,1.029,0.344,1.421
		l0.146,0.593c0-0.068,0.039-0.322,0.123-0.764c0.08-0.439,0.186-0.994,0.316-1.667c0.133-0.67,0.246-1.2,0.346-1.594
		c0.098-0.423,0.234-0.964,0.418-1.617c0.176-0.653,0.363-1.276,0.561-1.862l3.775-11.967h6.916l-9.121,25.43
		C309.244,53.05,308.455,54.878,307.736,56.115"/>
	<g>
		<path fill="#005A9C" d="M148.584,80.054V67.472h2.644v12.582H148.584z"/>
		<path fill="#005A9C" d="M159.862,80.054l-2.154-4.816c-0.707-1.573-1.467-3.35-1.703-4.127c0.092,1.031,0.109,2.517,0.127,3.566
			l0.074,5.377h-2.444V67.472h2.806l2.408,5.032c0.634,1.339,1.123,2.661,1.376,3.565c-0.09-0.978-0.181-2.588-0.199-3.457
			l-0.054-5.141h2.408v12.582H159.862z"/>
		<path fill="#005A9C" d="M169.98,80.144h-2.299l-4.272-12.672h2.771l2.082,6.553c0.182,0.563,0.38,1.269,0.579,2.191
			c0.164-0.779,0.49-1.828,0.725-2.518l2.137-6.227h2.661L169.98,80.144z"/>
		<path fill="#005A9C" d="M175.266,80.054V67.472h7.169l-0.326,2.063h-4.31v2.915h3.604v2.063h-3.566v3.367h4.762v2.173
			L175.266,80.054L175.266,80.054z"/>
		<path fill="#005A9C" d="M187.612,80.325c-1.431,0-3.023-0.417-4.291-1.141l0.941-1.976c1.177,0.617,2.189,1.015,3.458,1.015
			c1.448,0,2.208-0.597,2.208-1.72c0-0.813-0.524-1.321-1.647-1.629l-1.394-0.381c-1.249-0.345-2.028-0.832-2.48-1.593
			c-0.344-0.563-0.525-1.213-0.525-1.92c0-2.299,1.847-3.893,4.509-3.893c1.538,0,3.096,0.471,4.198,1.268l-1.193,1.812
			c-1.141-0.688-1.991-0.96-2.934-0.96c-1.031,0-1.756,0.598-1.756,1.448c0,0.651,0.344,0.978,1.395,1.268l1.521,0.416
			c2.063,0.562,3.187,1.884,3.187,3.748C192.808,78.642,190.745,80.325,187.612,80.325z"/>
		<path fill="#005A9C" d="M202.002,69.571h-3.004v10.481h-2.57V69.571h-3.078v-2.1h9.068L202.002,69.571z"/>
		<path fill="#005A9C" d="M213.479,80.054l-0.471-6.717c-0.055-0.797-0.09-1.43-0.09-2.1c-0.146,0.724-0.254,1.176-0.473,1.937
			l-1.99,6.88h-2.154l-1.793-6.607c-0.16-0.615-0.379-1.504-0.506-2.228c0,0.742-0.037,1.484-0.092,2.263l-0.434,6.572h-2.518
			l1.178-12.582h3.24l1.646,6.299c0.234,0.905,0.326,1.34,0.436,1.992c0.109-0.652,0.252-1.304,0.451-2.047l1.703-6.246h3.223
			l1.123,12.583L213.479,80.054L213.479,80.054z"/>
		<path fill="#005A9C" d="M218.131,80.054V67.472h7.17l-0.326,2.063h-4.309v2.915h3.602v2.063h-3.564v3.367h4.762v2.173
			L218.131,80.054L218.131,80.054z"/>
		<path fill="#005A9C" d="M233.191,80.054l-2.154-4.816c-0.705-1.573-1.467-3.35-1.701-4.127c0.09,1.031,0.109,2.517,0.127,3.566
			l0.072,5.377h-2.443V67.472h2.807l2.406,5.032c0.635,1.339,1.123,2.661,1.377,3.565c-0.092-0.978-0.182-2.588-0.199-3.457
			l-0.055-5.141h2.408v12.582H233.191z"/>
		<path fill="#005A9C" d="M245.936,69.571h-3.004v10.481h-2.57V69.571h-3.078v-2.1h9.068L245.936,69.571z"/>
		<path fill="#005A9C" d="M246.588,82.678l-0.961-1.014c0.797-0.181,1.305-0.597,1.305-1.032c0-0.234-0.107-0.361-0.471-0.578
			c-0.488-0.291-0.707-0.688-0.707-1.268c0-0.869,0.707-1.557,1.576-1.557c1.049,0,1.811,0.903,1.811,2.172
			C249.141,80.978,248.107,82.298,246.588,82.678z"/>
		<path fill="#005A9C" d="M255.203,80.054V67.472h7.17l-0.326,2.063h-4.311v2.915h3.604v2.063h-3.566v3.367h4.764v2.173
			L255.203,80.054L255.203,80.054z"/>
		<path fill="#005A9C" d="M270.283,80.054l-2.264-4.436l-2.246,4.436h-3.148l3.945-6.734l-3.402-5.848h3.096l1.701,3.385
			l1.721-3.385h3.023l-3.277,5.685l3.91,6.897H270.283z"/>
		<path fill="#005A9C" d="M280.781,75.003c-0.578,0.271-1.121,0.416-2.516,0.416h-1.395v4.635h-2.535V67.472h3.313
			c2.137,0,2.789,0.217,3.494,0.615c1.178,0.65,1.811,1.811,1.811,3.26C282.953,73.011,282.158,74.351,280.781,75.003z
			 M278.482,69.517h-1.611v3.838h1.32c1.033,0,1.342-0.127,1.686-0.651c0.217-0.345,0.307-0.706,0.307-1.304
			C280.184,70.224,279.551,69.517,278.482,69.517z"/>
		<path fill="#005A9C" d="M292.096,79.673c-0.762,0.416-1.467,0.58-2.518,0.58c-1.9,0-3.131-0.525-4.092-1.775
			c-0.959-1.229-1.447-2.824-1.447-4.67c0-2.715,1.031-4.888,2.842-5.884c0.742-0.397,1.666-0.616,2.607-0.616
			c3.35,0,5.412,2.444,5.412,6.391C294.9,76.541,293.924,78.677,292.096,79.673z M291.66,70.856
			c-0.199-0.633-0.869-1.594-2.207-1.594c-0.854,0-1.596,0.436-1.957,1.104c-0.434,0.813-0.633,1.919-0.633,3.438
			c0,2.172,0.361,3.529,1.121,4.073c0.398,0.289,0.906,0.435,1.504,0.435c1.756,0,2.496-1.34,2.496-4.543
			C291.984,72.485,291.879,71.563,291.66,70.856z"/>
		<path fill="#005A9C" d="M303.027,80.054c-0.488-0.834-0.688-1.178-1.176-2.063c-1.25-2.263-1.631-2.88-2.082-3.078
			c-0.127-0.054-0.234-0.091-0.398-0.106v5.25h-2.479V67.472h4.688c2.229,0,3.693,1.484,3.693,3.692c0,1.884-1.25,3.44-2.807,3.476
			c0.254,0.199,0.363,0.31,0.525,0.525c0.725,0.904,3.021,4.889,3.021,4.889H303.027z M301.707,69.681
			c-0.289-0.109-0.814-0.182-1.432-0.182h-0.904v3.402h0.852c1.086,0,1.559-0.107,1.9-0.416c0.309-0.289,0.488-0.742,0.488-1.268
			C302.611,70.44,302.305,69.897,301.707,69.681z"/>
		<path fill="#005A9C" d="M314.668,69.571h-3.004v10.481h-2.572V69.571h-3.076v-2.1h9.068L314.668,69.571z"/>
		<path fill="#005A9C" d="M326.578,80.054l-0.887-2.988h-3.693l-0.887,2.988h-2.645l4.129-12.619h2.732l3.965,12.619H326.578z
			 M324.389,72.433c-0.127-0.58-0.508-2.229-0.508-2.229s-0.361,1.484-0.598,2.426c-0.234,0.906-0.396,1.504-0.67,2.336h2.463
			C325.076,74.966,324.66,73.646,324.389,72.433z"/>
		<path fill="#005A9C" d="M336.516,80.054l-2.152-4.816c-0.705-1.573-1.467-3.35-1.701-4.127c0.09,1.031,0.107,2.517,0.127,3.566
			l0.07,5.377h-2.441V67.472h2.805l2.408,5.032c0.633,1.339,1.121,2.661,1.375,3.565c-0.09-0.978-0.18-2.588-0.199-3.457
			l-0.055-5.141h2.408v12.582H336.516z"/>
		<path fill="#005A9C" d="M349.623,78.17c-0.762,1.032-1.883,1.722-3.061,1.812c-0.471,0.035-1.066,0.072-1.811,0.072h-3.061V67.472
			h2.535c0.725,0,1.684,0.036,2.189,0.071c1.068,0.091,1.992,0.49,2.752,1.25c1.158,1.142,1.721,2.751,1.721,5.015
			C350.891,75.526,350.473,77.03,349.623,78.17z M347.414,70.513c-0.416-0.688-0.996-1.05-1.992-1.05h-1.158v8.527h1.357
			c1.666,0,2.426-1.285,2.426-3.946C348.047,72.577,347.922,71.347,347.414,70.513z"/>
		<path fill="#005A9C" d="M361.857,80.271c-1.736,0-3.076-0.562-4.107-1.737c-1.016-1.142-1.521-2.661-1.521-4.509
			c0-1.573,0.271-2.823,0.852-3.909c0.977-1.828,2.787-2.914,4.814-2.914c1.25,0,2.498,0.397,3.188,0.995l-1.143,1.72
			c-0.633-0.47-1.303-0.706-2.01-0.706c-0.85,0-1.684,0.417-2.135,1.087c-0.488,0.724-0.707,1.772-0.707,3.24
			c0,1.72,0.145,2.68,0.523,3.366c0.508,0.925,1.342,1.412,2.428,1.412c0.742,0,1.412-0.217,2.152-0.813l1.16,1.593
			C364.355,79.908,363.289,80.271,361.857,80.271z"/>
		<path fill="#005A9C" d="M373.77,79.673c-0.76,0.416-1.467,0.58-2.516,0.58c-1.9,0-3.131-0.525-4.092-1.775
			c-0.959-1.229-1.447-2.824-1.447-4.67c0-2.715,1.031-4.888,2.842-5.884c0.742-0.397,1.666-0.616,2.607-0.616
			c3.348,0,5.412,2.444,5.412,6.391C376.576,76.541,375.6,78.677,373.77,79.673z M373.336,70.856
			c-0.199-0.633-0.869-1.594-2.209-1.594c-0.852,0-1.594,0.436-1.955,1.104c-0.436,0.813-0.633,1.919-0.633,3.438
			c0,2.172,0.361,3.529,1.121,4.073c0.398,0.289,0.904,0.435,1.504,0.435c1.756,0,2.498-1.34,2.498-4.543
			C373.662,72.485,373.553,71.563,373.336,70.856z"/>
		<path fill="#005A9C" d="M387.383,77.917c-0.326,0.996-1.557,2.371-4.273,2.371c-1.918,0-3.33-0.579-4.035-1.684
			c-0.416-0.65-0.545-1.158-0.545-2.371v-8.762h2.592v8.272c0,0.778,0.07,1.231,0.217,1.503c0.289,0.561,0.887,0.869,1.719,0.869
			c1.105,0,1.811-0.543,1.92-1.467c0.035-0.271,0.035-0.453,0.035-1.123v-8.055h2.57v8.473
			C387.582,77.14,387.563,77.374,387.383,77.917z"/>
		<path fill="#005A9C" d="M396.18,80.054l-2.154-4.816c-0.705-1.573-1.467-3.35-1.701-4.127c0.092,1.031,0.109,2.517,0.127,3.566
			l0.072,5.377h-2.443V67.472h2.807l2.408,5.032c0.633,1.339,1.121,2.661,1.375,3.565c-0.09-0.978-0.182-2.588-0.199-3.457
			l-0.055-5.141h2.408v12.582H396.18z"/>
		<path fill="#005A9C" d="M408.924,69.571h-3.006v10.481h-2.57V69.571h-3.076v-2.1h9.068L408.924,69.571z"/>
		<path fill="#005A9C" d="M416.381,80.054c-0.488-0.834-0.688-1.178-1.176-2.063c-1.25-2.263-1.629-2.88-2.082-3.078
			c-0.127-0.054-0.234-0.091-0.398-0.106v5.25h-2.479V67.472h4.688c2.227,0,3.693,1.484,3.693,3.692c0,1.884-1.25,3.44-2.807,3.476
			c0.252,0.199,0.361,0.31,0.523,0.525c0.725,0.904,3.023,4.889,3.023,4.889H416.381z M415.059,69.681
			c-0.289-0.109-0.813-0.182-1.428-0.182h-0.906v3.402h0.852c1.086,0,1.557-0.107,1.9-0.416c0.309-0.289,0.488-0.742,0.488-1.268
			C415.965,70.44,415.658,69.897,415.059,69.681z"/>
		<path fill="#005A9C" d="M425.65,74.876v5.178h-2.645v-5.178l-3.91-7.404h3.041l1.611,3.439c0.326,0.688,0.488,1.141,0.633,1.611
			c0.146-0.362,0.398-0.979,0.67-1.576l1.629-3.475h2.988L425.65,74.876z"/>
		<path fill="#005A9C" d="M154.161,100.035c-0.398,0.018-0.924,0.036-1.611,0.036h-3.965V87.489h4.254
			c1.539,0,2.336,0.234,3.097,0.904c0.706,0.616,1.032,1.34,1.032,2.246c0,0.851-0.291,1.574-0.852,2.1
			c-0.361,0.345-0.578,0.472-1.158,0.652c1.558,0.451,2.498,1.52,2.498,3.168C157.456,98.298,156.37,99.927,154.161,100.035z
			 M153.599,89.808c-0.218-0.092-0.489-0.164-1.05-0.164h-1.467v2.879h1.502c0.598,0,0.869-0.055,1.086-0.162
			c0.345-0.182,0.652-0.778,0.652-1.285C154.323,90.549,154.051,89.987,153.599,89.808z M153.67,94.713
			c-0.308-0.091-0.506-0.108-0.977-0.108h-1.574v3.403h1.646c0.525,0,0.904-0.073,1.177-0.29c0.38-0.29,0.652-0.869,0.652-1.467
			C154.595,95.526,154.233,94.876,153.67,94.713z"/>
		<path fill="#005A9C" d="M165.583,100.071c-0.488-0.834-0.688-1.178-1.177-2.063c-1.249-2.264-1.629-2.879-2.081-3.077
			c-0.127-0.055-0.236-0.091-0.398-0.109v5.25h-2.48V87.489h4.689c2.227,0,3.693,1.484,3.693,3.693c0,1.883-1.25,3.438-2.807,3.476
			c0.254,0.198,0.361,0.308,0.525,0.524c0.725,0.905,3.022,4.889,3.022,4.889H165.583z M164.261,89.698
			c-0.29-0.109-0.814-0.182-1.431-0.182h-0.904v3.403h0.851c1.086,0,1.558-0.108,1.899-0.417c0.309-0.289,0.49-0.742,0.49-1.268
			C165.167,90.458,164.858,89.915,164.261,89.698z"/>
		<path fill="#005A9C" d="M176.715,100.071l-0.887-2.987h-3.693l-0.887,2.987h-2.644l4.127-12.618h2.733l3.965,12.618H176.715z
			 M174.524,92.45c-0.127-0.58-0.507-2.227-0.507-2.227s-0.362,1.483-0.599,2.426c-0.234,0.903-0.397,1.502-0.67,2.334h2.463
			C175.211,94.983,174.795,93.663,174.524,92.45z"/>
		<path fill="#005A9C" d="M186.652,100.071l-2.153-4.815c-0.707-1.575-1.467-3.349-1.703-4.128c0.09,1.032,0.109,2.518,0.127,3.566
			l0.072,5.377h-2.443V87.489h2.806l2.408,5.033c0.634,1.338,1.123,2.66,1.376,3.565c-0.092-0.978-0.182-2.589-0.199-3.458
			l-0.054-5.143h2.407v12.582h-2.644V100.071z"/>
		<path fill="#005A9C" d="M199.758,98.188c-0.76,1.031-1.883,1.72-3.058,1.81c-0.472,0.037-1.068,0.073-1.812,0.073h-3.06V87.489
			h2.533c0.725,0,1.686,0.035,2.191,0.072c1.066,0.09,1.99,0.488,2.751,1.25c1.156,1.14,1.719,2.75,1.719,5.014
			C201.025,95.546,200.609,97.048,199.758,98.188z M197.549,90.53c-0.416-0.688-0.994-1.049-1.99-1.049H194.4v8.525h1.356
			c1.666,0,2.427-1.285,2.427-3.947C198.184,92.595,198.057,91.362,197.549,90.53z"/>
		<path fill="#005A9C" d="M213.354,95.021c-0.58,0.271-1.123,0.416-2.518,0.416h-1.395v4.635h-2.533V87.489h3.313
			c2.137,0,2.787,0.218,3.494,0.615c1.178,0.651,1.811,1.811,1.811,3.258C215.525,93.028,214.729,94.369,213.354,95.021z
			 M211.055,89.535h-1.611v3.838h1.32c1.031,0,1.34-0.127,1.684-0.651c0.217-0.344,0.309-0.707,0.309-1.304
			C212.754,90.241,212.121,89.535,211.055,89.535z"/>
		<path fill="#005A9C" d="M223.291,100.071c-0.488-0.834-0.689-1.178-1.178-2.063c-1.248-2.264-1.629-2.879-2.08-3.077
			c-0.129-0.055-0.236-0.091-0.398-0.109v5.25h-2.48V87.489h4.688c2.227,0,3.693,1.484,3.693,3.693c0,1.883-1.248,3.438-2.807,3.476
			c0.254,0.198,0.361,0.308,0.525,0.524c0.725,0.905,3.021,4.889,3.021,4.889H223.291z M221.969,89.698
			c-0.289-0.109-0.814-0.182-1.43-0.182h-0.904v3.403h0.85c1.086,0,1.559-0.108,1.9-0.417c0.309-0.289,0.49-0.742,0.49-1.268
			C222.875,90.458,222.566,89.915,221.969,89.698z"/>
		<path fill="#005A9C" d="M235.236,99.69c-0.76,0.416-1.465,0.58-2.516,0.58c-1.9,0-3.131-0.525-4.092-1.774
			c-0.959-1.229-1.447-2.824-1.447-4.671c0-2.715,1.031-4.889,2.842-5.885c0.742-0.396,1.666-0.613,2.607-0.613
			c3.35,0,5.412,2.443,5.412,6.39C238.045,96.56,237.066,98.694,235.236,99.69z M234.803,90.875
			c-0.199-0.634-0.867-1.593-2.207-1.593c-0.852,0-1.594,0.434-1.957,1.104c-0.434,0.815-0.633,1.92-0.633,3.439
			c0,2.173,0.363,3.529,1.123,4.072c0.396,0.291,0.904,0.436,1.502,0.436c1.756,0,2.498-1.339,2.498-4.544
			C235.129,92.504,235.021,91.581,234.803,90.875z"/>
		<path fill="#005A9C" d="M250.189,100.071l-0.471-6.717c-0.055-0.797-0.09-1.431-0.09-2.101c-0.146,0.726-0.254,1.177-0.471,1.937
			l-1.992,6.881h-2.154l-1.793-6.607c-0.162-0.615-0.379-1.503-0.506-2.227c0,0.742-0.037,1.482-0.09,2.263l-0.438,6.571h-2.516
			l1.178-12.582h3.24l1.646,6.3c0.234,0.905,0.324,1.34,0.436,1.991c0.107-0.651,0.252-1.303,0.451-2.047l1.703-6.244h3.223
			l1.121,12.582H250.189z"/>
		<path fill="#005A9C" d="M262.354,99.69c-0.76,0.416-1.465,0.58-2.516,0.58c-1.9,0-3.133-0.525-4.092-1.774
			c-0.959-1.229-1.447-2.824-1.447-4.671c0-2.715,1.031-4.889,2.842-5.885c0.742-0.396,1.666-0.613,2.607-0.613
			c3.348,0,5.412,2.443,5.412,6.39C265.16,96.56,264.184,98.694,262.354,99.69z M261.92,90.875
			c-0.199-0.634-0.869-1.593-2.209-1.593c-0.852,0-1.594,0.434-1.955,1.104c-0.436,0.815-0.633,1.92-0.633,3.439
			c0,2.173,0.361,3.529,1.121,4.072c0.398,0.291,0.904,0.436,1.504,0.436c1.756,0,2.498-1.339,2.498-4.544
			C262.246,92.504,262.137,91.581,261.92,90.875z"/>
		<path fill="#005A9C" d="M274.176,89.589h-3.006v10.482h-2.572V89.589h-3.076v-2.1h9.07L274.176,89.589z"/>
		<path fill="#005A9C" d="M275.496,100.071V87.489h2.643v12.582H275.496z"/>
		<path fill="#005A9C" d="M288.186,99.69c-0.762,0.416-1.467,0.58-2.516,0.58c-1.902,0-3.133-0.525-4.092-1.774
			c-0.961-1.229-1.449-2.824-1.449-4.671c0-2.715,1.031-4.889,2.842-5.885c0.742-0.396,1.666-0.613,2.607-0.613
			c3.35,0,5.412,2.443,5.412,6.39C290.99,96.56,290.014,98.694,288.186,99.69z M287.75,90.875c-0.199-0.634-0.869-1.593-2.207-1.593
			c-0.854,0-1.594,0.434-1.957,1.104c-0.434,0.815-0.633,1.92-0.633,3.439c0,2.173,0.361,3.529,1.123,4.072
			c0.396,0.291,0.904,0.436,1.502,0.436c1.756,0,2.498-1.339,2.498-4.544C288.076,92.504,287.967,91.581,287.75,90.875z"/>
		<path fill="#005A9C" d="M299.082,100.071l-2.154-4.815c-0.705-1.575-1.467-3.349-1.701-4.128c0.09,1.032,0.107,2.518,0.127,3.566
			l0.072,5.377h-2.445V87.489h2.809l2.406,5.033c0.635,1.338,1.123,2.66,1.375,3.565c-0.09-0.978-0.182-2.589-0.197-3.458
			l-0.055-5.143h2.406v12.582h-2.643V100.071z"/>
		<path fill="#005A9C" d="M314.848,100.071l-0.887-2.987h-3.693l-0.887,2.987h-2.643l4.127-12.618h2.734l3.963,12.618H314.848z
			 M312.658,92.45c-0.127-0.58-0.508-2.227-0.508-2.227s-0.361,1.483-0.598,2.426c-0.234,0.903-0.398,1.502-0.67,2.334h2.463
			C313.346,94.983,312.93,93.663,312.658,92.45z"/>
		<path fill="#005A9C" d="M323.771,100.217c-1.883,0-3.275-0.616-4.291-1.919c-0.922-1.178-1.34-2.517-1.34-4.398
			c0-2.662,0.871-4.545,2.627-5.722c0.922-0.616,1.863-0.887,3.059-0.887c1.521,0,2.896,0.487,4.002,1.446l-1.342,1.576
			c-0.813-0.67-1.664-0.979-2.623-0.979c-0.742,0-1.377,0.218-1.811,0.634c-0.852,0.814-1.068,2.173-1.068,4.056
			c0,1.793,0.309,2.951,0.941,3.584c0.471,0.453,1.158,0.705,1.973,0.705c0.563,0,1.014-0.09,1.432-0.307v-2.861h-1.92l-0.326-2.063
			h4.871v6.01C326.67,99.854,325.258,100.217,323.771,100.217z"/>
		<path fill="#005A9C" d="M330.307,100.071V87.489h7.17l-0.326,2.063h-4.309v2.914h3.602v2.063h-3.564v3.367h4.762v2.172h-7.334
			V100.071z"/>
		<path fill="#005A9C" d="M345.367,100.071l-2.154-4.815c-0.705-1.575-1.465-3.349-1.701-4.128c0.09,1.032,0.109,2.518,0.127,3.566
			l0.072,5.377h-2.443V87.489h2.807l2.406,5.033c0.635,1.338,1.123,2.66,1.377,3.565c-0.092-0.978-0.182-2.589-0.199-3.458
			l-0.055-5.143h2.408v12.582h-2.645V100.071z"/>
		<path fill="#005A9C" d="M355.631,100.288c-1.736,0-3.076-0.563-4.109-1.737c-1.014-1.141-1.52-2.661-1.52-4.508
			c0-1.575,0.27-2.824,0.85-3.91c0.979-1.827,2.789-2.915,4.816-2.915c1.248,0,2.498,0.398,3.186,0.996l-1.141,1.721
			c-0.633-0.472-1.303-0.707-2.01-0.707c-0.852,0-1.684,0.416-2.137,1.088c-0.488,0.723-0.705,1.772-0.705,3.238
			c0,1.721,0.145,2.68,0.525,3.367c0.506,0.924,1.338,1.412,2.426,1.412c0.742,0,1.41-0.217,2.154-0.814l1.158,1.594
			C358.129,99.927,357.063,100.288,355.631,100.288z"/>
		<path fill="#005A9C" d="M365.588,94.894v5.178h-2.645v-5.178l-3.91-7.403h3.043l1.609,3.438c0.326,0.688,0.488,1.141,0.633,1.611
			c0.146-0.361,0.398-0.979,0.67-1.574l1.631-3.477h2.986L365.588,94.894z"/>
	</g>
</g>
</svg>
